<svg xmlns="http://www.w3.org/2000/svg" xmlns:xlink="http://www.w3.org/1999/xlink" width="1600" zoomAndPan="magnify" viewBox="0 0 1200 712.499978" height="950" preserveAspectRatio="xMidYMid meet" version="1.0"><defs><filter x="0%" y="0%" width="100%" height="100%" id="09935e72ff"><feColorMatrix values="0 0 0 0 1 0 0 0 0 1 0 0 0 0 1 0 0 0 1 0" color-interpolation-filters="sRGB"/></filter><clipPath id="4c9de30ca4"><path d="M 0.421875 0 L 1199.578125 0 L 1199.578125 712 L 0.421875 712 Z M 0.421875 0 " clip-rule="nonzero"/></clipPath><clipPath id="ade5686b11"><path d="M 393 0 L 1199.578125 0 L 1199.578125 712 L 393 712 Z M 393 0 " clip-rule="nonzero"/></clipPath><mask id="e0db89d60e"><g filter="url(#09935e72ff)"><rect x="-120" width="1440" fill="#000000" y="-71.249998" height="854.999974" fill-opacity="0.55"/></g></mask><clipPath id="6c44e0b4bf"><path d="M 1.136719 0 L 806.578125 0 L 806.578125 712 L 1.136719 712 Z M 1.136719 0 " clip-rule="nonzero"/></clipPath><clipPath id="3449912deb"><rect x="0" width="807" y="0" height="712"/></clipPath><clipPath id="608a9e7e81"><path d="M 0.421875 0 L 994.21875 0 L 994.21875 712 L 0.421875 712 Z M 0.421875 0 " clip-rule="nonzero"/></clipPath><clipPath id="1bf23e1937"><path d="M 363.257812 -580.429688 C 14.785156 -580.429688 -267.707031 -288.683594 -267.707031 71.199219 C -267.707031 431.085938 14.785156 722.832031 363.257812 722.832031 C 711.726562 722.832031 994.21875 431.085938 994.21875 71.199219 C 994.21875 -288.683594 711.726562 -580.429688 363.257812 -580.429688 Z M 363.257812 -580.429688 " clip-rule="nonzero"/></clipPath><clipPath id="ce02dd29d6"><path d="M 0.421875 0 L 800.949219 0 L 800.949219 712 L 0.421875 712 Z M 0.421875 0 " clip-rule="nonzero"/></clipPath><clipPath id="f7859e568f"><path d="M 121.152344 -580.429688 C -254.105469 -580.429688 -558.308594 -288.683594 -558.308594 71.199219 C -558.308594 431.085938 -254.105469 722.832031 121.152344 722.832031 C 496.40625 722.832031 800.613281 431.085938 800.613281 71.199219 C 800.613281 -288.683594 496.40625 -580.429688 121.152344 -580.429688 Z M 121.152344 -580.429688 " clip-rule="nonzero"/></clipPath></defs><g clip-path="url(#4c9de30ca4)"><path fill="#ffffff" d="M 0.421875 0 L 1199.578125 0 L 1199.578125 712 L 0.421875 712 Z M 0.421875 0 " fill-opacity="1" fill-rule="nonzero"/><path fill="#ffffff" d="M 0.421875 0 L 1199.578125 0 L 1199.578125 712 L 0.421875 712 Z M 0.421875 0 " fill-opacity="1" fill-rule="nonzero"/></g><g clip-path="url(#ade5686b11)"><g mask="url(#e0db89d60e)"><g transform="matrix(1, 0, 0, 1, 393, 0)"><g clip-path="url(#3449912deb)"><g clip-path="url(#6c44e0b4bf)"><path fill="#ff4141" d="M 1.136719 -83.078125 L 1040.003906 -83.078125 L 1040.003906 722.832031 L 1.136719 722.832031 Z M 1.136719 -83.078125 " fill-opacity="1" fill-rule="nonzero"/></g></g></g></g></g><g clip-path="url(#608a9e7e81)"><g clip-path="url(#1bf23e1937)"><path fill="#ff4141" d="M -267.707031 -580.429688 L 994.21875 -580.429688 L 994.21875 720.929688 L -267.707031 720.929688 Z M -267.707031 -580.429688 " fill-opacity="1" fill-rule="nonzero"/></g></g><g clip-path="url(#ce02dd29d6)"><g clip-path="url(#f7859e568f)"><path fill="#f80000" d="M -558.308594 -580.429688 L 800.949219 -580.429688 L 800.949219 722.832031 L -558.308594 722.832031 Z M -558.308594 -580.429688 " fill-opacity="1" fill-rule="nonzero"/></g></g></svg>